<svg xmlns="http://www.w3.org/2000/svg" viewBox="0 0 512 512" width="512" height="512" role="img" aria-label="PlayBridge — Bond Frost">
  <defs>
    <linearGradient id="tile" x1="0" y1="0" x2="1" y2="1">
      <stop offset="0" stop-color="#d8e8fa"/>
      <stop offset="1" stop-color="#b0cfee"/>
    </linearGradient>
    <filter id="pShadow" x="-20%" y="-20%" width="140%" height="140%">
      <feDropShadow dx="0" dy="8" stdDeviation="12" flood-color="#082554" flood-opacity="0.2"/>
    </filter>
  </defs>
  <rect width="512" height="512" rx="112" fill="url(#tile)"/>
  <g filter="url(#pShadow)">
    <g transform="translate(256, 256) scale(0.85) translate(-256, -256)">
      <path fill="#0f428c" fill-rule="evenodd" d="
        M168 139 a14 14 0 0 1 14 -14
        H244 a116 80 0 0 1 0 160
        V396 a14 14 0 0 1 -14 14
        H182 a14 14 0 0 1 -14 -14 Z
        M244 175 a45 30 0 0 1 0 60 Z
      "/>
    </g>
  </g>
</svg>

