<svg xmlns="http://www.w3.org/2000/svg" viewBox="0 0 512 512" width="512" height="512" role="img" aria-label="PlayBridge — Bond Light">
  <defs>
    <linearGradient id="tile" x1="0" y1="0" x2="1" y2="1">
      <stop offset="0" stop-color="#ffffff"/>
      <stop offset="1" stop-color="#f0f4f8"/>
    </linearGradient>
    <radialGradient id="tileGlow" cx="0.5" cy="0.4" r="0.6">
      <stop offset="0" stop-color="#ffffff" stop-opacity="0.8"/>
      <stop offset="1" stop-color="#ffffff" stop-opacity="0"/>
    </radialGradient>
    <linearGradient id="bond" x1="0" y1="1" x2="1" y2="0">
      <stop offset="0" stop-color="#3b7ccf"/>
      <stop offset="0.5" stop-color="#1b54a8"/>
      <stop offset="1" stop-color="#0a2a66"/>
    </linearGradient>
    <filter id="pShadow" x="-20%" y="-20%" width="140%" height="140%">
      <feDropShadow dx="0" dy="12" stdDeviation="16" flood-color="#0d3a8a" flood-opacity="0.15"/>
      <feDropShadow dx="0" dy="4" stdDeviation="6" flood-color="#0d3a8a" flood-opacity="0.1"/>
    </filter>
  </defs>
  <rect width="512" height="512" rx="112" fill="url(#tile)"/>
  <rect width="512" height="512" rx="112" fill="url(#tileGlow)"/>
  <g filter="url(#pShadow)">
    <path fill="url(#bond)" fill-rule="evenodd" d="
      M168 139 a14 14 0 0 1 14 -14
      H244 a116 80 0 0 1 0 160
      V396 a14 14 0 0 1 -14 14
      H182 a14 14 0 0 1 -14 -14 Z
      M244 175 a45 30 0 0 1 0 60 Z
    "/>
  </g>
</svg>
